# xmcd CD database file
#
# Track frame offsets:
#	150
#	18725
#	39075
#	55212
#	72800
#	96475
#	130612
#	147937
#	165585
#
# Disc length: 2421 seconds
#
# Revision: 0
# Processed by: cddbd v1.4PL0 Copyright (c) Steve Scherf et al.
# Submitted via: Feurio! 1.65 - http://www.feurio.com
#
DISCID=75097309
DTITLE=The Nick Gravenites John Cipollina Band - Monkey Medicine
DYEAR=1982
DGENRE=Blues
TTITLE0=Blues In The Bottle
TTITLE1=Six Weeks In Reno
TTITLE2=I'll Pull The Trigger
TTITLE3=Trust Me
TTITLE4=Buried Alive
TTITLE5=Bad Luck Baby
TTITLE6=Signs Of Life
TTITLE7=Pride Of Man
TTITLE8=Hot Rods and Cool Women
EXTD=ARD Line Records LICD 9.00144
EXTT0=
EXTT1=
EXTT2=
EXTT3=
EXTT4=
EXTT5=
EXTT6=
EXTT7=
EXTT8=
PLAYORDER=
